<svg id="Layer_1" data-name="Layer 1" xmlns="http://www.w3.org/2000/svg" viewBox="0 0 1300 256"><defs><style>.cls-1{fill:none;stroke:#0528f2;stroke-miterlimit:10;stroke-width:18px;}.cls-2{fill:#001131;}</style></defs><path class="cls-1" d="M142.26,29.68C129.67,32.3,96.47,46.31,96.47,46.31h0C57,61.53,38,108.84,53.55,158.45s59.69,77.68,99.27,67.53c0,0,35.5-8.67,45.32-12.32"/><ellipse class="cls-1" cx="170.02" cy="121.66" rx="75.91" ry="96.18" transform="translate(-29.27 58.49) rotate(-18)"/><path class="cls-2" d="M315.88,166.91v-42a1.1,1.1,0,0,0-1.09-1.1H300.91a.79.79,0,0,1-.79-.79V98.16a.8.8,0,0,1,.79-.8h13.88a1.09,1.09,0,0,0,1.09-1.09V72.45a1.09,1.09,0,0,1,1.1-1.09h27.95a1.1,1.1,0,0,1,1.1,1.09V96.27a1.09,1.09,0,0,0,1.09,1.09h17.12a1.09,1.09,0,0,1,1.09,1.1v24.21a1.09,1.09,0,0,1-1.09,1.09H347.12a1.1,1.1,0,0,0-1.09,1.1v33.58c0,5.52,3.15,9.65,8.47,9.65a14.59,14.59,0,0,0,6.51-1.48,1.09,1.09,0,0,1,1.58.69l5.33,20.63a1.08,1.08,0,0,1-.32,1.1c-3.89,3.33-11.21,5.86-22,5.86C326.32,194.89,315.88,185.23,315.88,166.91Z"/><path class="cls-2" d="M374.19,144.85C374.19,118.05,393.7,95,426,95c32.7,0,52,23,52,49.85s-19.31,50-52,50C393.7,194.89,374.19,171.64,374.19,144.85Zm72.7,0c0-12.61-7.48-23.06-20.88-23.06-13.2,0-20.49,10.45-20.49,23.06,0,12.8,7.29,23.24,20.49,23.24C439.41,168.09,446.89,157.65,446.89,144.85Z"/><path class="cls-2" d="M532.41,160l-7.84,9.36a1.15,1.15,0,0,0-.26.71v21.36a1.09,1.09,0,0,1-1.09,1.09H495.07a1.09,1.09,0,0,1-1.1-1.09V62.21a1.1,1.1,0,0,1,1.1-1.1h28.15a1.09,1.09,0,0,1,1.09,1.1v69.93a1.1,1.1,0,0,0,2,.67L553,97.8a1.07,1.07,0,0,1,.87-.44h33.81a1.1,1.1,0,0,1,.85,1.79l-33.1,40.91a1.1,1.1,0,0,0,0,1.32l35.14,49.41a1.1,1.1,0,0,1-.9,1.73h-34.7a1.08,1.08,0,0,1-.93-.52l-19.76-31.88A1.09,1.09,0,0,0,532.41,160Z"/><path class="cls-2" d="M642.91,95c28.18,0,48.67,20.69,48.67,53v5.4a1.1,1.1,0,0,1-1.1,1.1H625.2a1.1,1.1,0,0,0-1.06,1.4c2.33,8.3,10.46,15.54,23.9,15.54,8,0,16.88-3,22.32-7.3a1.1,1.1,0,0,1,1.6.22l11.58,17.11a1.09,1.09,0,0,1-.19,1.45c-9.52,8-24.85,12-39.06,12-29.35,0-52-19.11-52-50C592.28,117.26,613.16,95,642.91,95Zm-18.15,39.8h36.57a1.1,1.1,0,0,0,1.08-1.31c-1.25-6.58-6.4-15-19.5-15-12.35,0-17.63,8.28-19.22,15A1.1,1.1,0,0,0,624.76,134.8Z"/><path class="cls-2" d="M771,137.56c0-11.63-6.11-15.77-15.57-15.77-8.85,0-14.69,4.7-18.26,9a1.09,1.09,0,0,0-.26.71v60a1.09,1.09,0,0,1-1.09,1.09H707.64a1.09,1.09,0,0,1-1.1-1.09v-93a1.1,1.1,0,0,1,1.1-1.1h28.15a1.09,1.09,0,0,1,1.09,1.1v7.75a1.1,1.1,0,0,0,1.88.76c6.13-6.06,16.66-12,31-12,21.67,0,31.52,12.61,31.52,30.14v66.29a1.09,1.09,0,0,1-1.1,1.09H772.06a1.09,1.09,0,0,1-1.09-1.09Z"/><path class="cls-2" d="M932.27,137.16c0-11.62-6.11-15.37-15.76-15.37-8.66,0-14.5,4.7-18.07,9a1.09,1.09,0,0,0-.26.71v60a1.09,1.09,0,0,1-1.09,1.09H868.94a1.09,1.09,0,0,1-1.1-1.09V62.21a1.1,1.1,0,0,1,1.1-1.1h28.15a1.09,1.09,0,0,1,1.09,1.1v44a1.1,1.1,0,0,0,1.88.76c6.13-6.06,16.66-12,31-12,21.67,0,31.52,12.22,31.52,29.75v66.68a1.09,1.09,0,0,1-1.1,1.09H933.36a1.09,1.09,0,0,1-1.09-1.09Z"/><path class="cls-2" d="M978.37,144.85c0-26.8,19.5-49.85,51.81-49.85,32.71,0,52,23,52,49.85s-19.3,50-52,50C997.87,194.89,978.37,171.64,978.37,144.85Zm72.7,0c0-12.61-7.49-23.06-20.89-23.06-13.2,0-20.49,10.45-20.49,23.06,0,12.8,7.29,23.24,20.49,23.24C1043.58,168.09,1051.07,157.65,1051.07,144.85Z"/><path class="cls-2" d="M1102,160.52a1.08,1.08,0,0,1,1.61-.29c7.43,6,21.8,11.8,32.55,11.8,9.06,0,12.81-2.95,12.81-7.09,0-4.92-6.5-6.7-16.36-8.27-16.15-2.76-39-6.11-39-30.35,0-16.74,14.38-31.32,40.78-31.32a67.08,67.08,0,0,1,39,12,1.07,1.07,0,0,1,.31,1.44l-10.44,18.06a1.09,1.09,0,0,1-1.65.29c-5.91-5.15-16.19-9.56-27-9.56-7.09,0-12,2.37-12,6.5,0,4.34,5.12,5.92,15.17,7.69,16.15,2.76,40.19,6.7,40.19,31.91,0,18.13-16,31.53-43.35,31.53-16.55,0-33.67-5.46-43.82-14a1.09,1.09,0,0,1-.22-1.4Z"/><path class="cls-2" d="M1199.8,166.91v-42a1.1,1.1,0,0,0-1.09-1.1h-13.57a1.09,1.09,0,0,1-1.1-1.09V98.46a1.1,1.1,0,0,1,1.1-1.1h13.57a1.09,1.09,0,0,0,1.09-1.09V72.45a1.09,1.09,0,0,1,1.1-1.09h27.95a1.09,1.09,0,0,1,1.1,1.09V96.27a1.09,1.09,0,0,0,1.09,1.09h17.12a1.1,1.1,0,0,1,1.1,1.1v24.21a1.1,1.1,0,0,1-1.1,1.09H1231a1.1,1.1,0,0,0-1.09,1.1v33.58c0,5.52,3.15,9.65,8.47,9.65a14.56,14.56,0,0,0,6.51-1.48,1.09,1.09,0,0,1,1.58.69l5.33,20.63a1.08,1.08,0,0,1-.32,1.1c-3.89,3.33-11.21,5.86-22,5.86C1210.25,194.89,1199.8,185.23,1199.8,166.91Z"/></svg>